<svg width="60" height="60" xmlns="http://www.w3.org/2000/svg">
 <title/>
 <desc/>

 <g>
  <title>background</title>
  <rect fill="none" id="canvas_background" height="402" width="582" y="-1" x="-1"/>
 </g>
 <g>
  <title>Layer 1</title>
  <path stroke="null" fill="#ffffff" id="svg_1" d="m22.554531,48.693938l0,-42.975319c0,0 20.400779,3.567627 23.120053,12.160078c2.720596,8.593128 -1.518784,14.158964 -3.005161,14.322111c-4.152693,0.452132 -5.115817,-2.484957 -5.115817,-2.484957l0,-12.616387l-5.657814,-1.774232l0,38.9077l-9.341261,-5.538994zm13.178273,-0.588566l0,4.741856c0,0 20.321189,-6.778488 23.470624,-9.566592c3.15008,-2.788798 -7.372942,-9.722755 -13.027208,-8.36707c0,0 -4.997611,0.050344 -10.443417,2.533575c-0.051619,0.022809 0,4.695609 0,4.695609l12.80465,-3.158678l4.866757,2.261303l-17.671407,6.859998zm-23.844247,1.054264c-6.227378,-0.076041 -11.739369,-1.885244 -11.667893,-5.803653c0.070814,-3.919796 8.36999,-7.90418 18.677263,-9.713367l0,5.355409l-9.014563,2.849498c0,0 -1.874179,2.490135 0.645234,2.562724c5.725741,0.167309 8.369329,-1.054264 8.369329,-1.054264l0,4.769262c0,0 -0.781991,1.110431 -7.009369,1.034391z"/>
 </g>
</svg>